<?xml version="1.0" encoding="utf-8"?>
<!-- Generator: Adobe Illustrator 27.5.0, SVG Export Plug-In . SVG Version: 6.00 Build 0)  -->
<svg version="1.1" id="BASE" xmlns="http://www.w3.org/2000/svg" xmlns:xlink="http://www.w3.org/1999/xlink" x="0px" y="0px"
	 viewBox="0 0 2279 1975" style="enable-background:new 0 0 2279 1975;" xml:space="preserve">
<g>
	<path style="fill:#EDE4C3;" d="M2125.539,922.19c-2.97-8.965-9.599-14.425-17.297-15.845l-68.947-19.818V617.327l47.794-32.573
		c16.144-11,12.579-35.75-6.009-41.709L875.759,154.529c-26.992-8.709-56.528-4.736-80.26,10.899
		C627.951,275.682,460.353,385.887,292.806,496.142c-16.449,34.171-41.3,97.371-42.675,180.075
		c-1.477,90.496,25.921,159.45,42.675,194.284l80.992,37.733l-176.206,56.799c-18.592,5.993-22.161,30.746-6.019,41.746
		l47.783,32.563v269.191l-68.828,19.784c-7.746,1.378-14.423,6.845-17.394,15.866c-3.31,10.046,0.354,20.568,8.396,26.455
		l591.19,432.681c32.792,24,76.047,28.249,112.882,11.089l1120.26-521.889c16.739-34.85,44.138-103.796,42.65-194.293
		c-0.071-4.285-0.207-8.515-0.4-12.693c-0.001-0.013-0.001-0.027-0.002-0.04c-0.715-15.518-2.238-30.294-4.344-44.263
		c-0.002-0.009-0.003-0.018-0.004-0.026c-0.323-2.14-0.66-4.26-1.009-6.362c-0.003-0.017-0.005-0.032-0.008-0.049
		c-0.171-1.029-0.345-2.054-0.522-3.073c-0.007-0.041-0.014-0.08-0.021-0.12c-0.178-1.026-0.36-2.048-0.544-3.064c0,0,0,0,0,0
		c-0.188-1.036-0.378-2.067-0.572-3.093c0-0.003-0.002-0.006-0.002-0.009c-0.362-1.917-0.733-3.818-1.115-5.701l97.166-71.111
		C2125.182,942.765,2128.848,932.223,2125.539,922.19z"/>
	<path style="fill:#FBB911;" d="M2125.539,922.19c-2.97-8.965-9.599-14.425-17.297-15.845l-68.947-19.818v59.087l-32.996,22.975
		l-0.003,0.002l-88.525,61.64l-282.181,196.482c-20.434,14.224-40.868,28.446-61.301,42.67
		c-10.643,7.408-21.284,14.816-31.927,22.224c-18.462,12.851-36.924,25.703-55.387,38.554c-1.359-4.192-2.739-8.633-4.116-13.31
		c-3.333-11.319-6.655-24.036-9.641-38.019c-0.912-4.272-1.793-8.663-2.633-13.168c-2.67-14.315-4.93-29.788-6.485-46.305
		c-0.437-4.646-0.82-9.374-1.139-14.182c-0.882-13.299-1.286-27.208-1.072-41.676c0.042-2.835,0.109-5.647,0.196-8.439
		c0.163-5.224,0.401-10.372,0.711-15.438c0.074-1.214,0.153-2.422,0.235-3.627c1.245-18.232,3.392-35.403,6.114-51.396
		c1.001-5.876,2.079-11.591,3.219-17.143c0.735-3.584,1.496-7.1,2.278-10.545c5.659-24.924,12.427-46.178,18.649-63.172h-6.315
		l227.988-155.378l73.494-50.087l250.838-170.95l47.794-32.573c16.144-11,12.579-35.75-6.009-41.709L875.759,154.529
		c-26.992-8.709-56.528-4.736-80.26,10.899C627.951,275.682,460.353,385.887,292.806,496.142
		c-16.449,34.171-41.3,97.371-42.675,180.075c-1.477,90.496,25.921,159.45,42.675,194.284l80.992,37.733l-176.206,56.799
		c-18.592,5.993-22.161,30.746-6.019,41.746l47.783,32.563l552.31,376.389c9.864,16.133,26.795,47.004,37.525,89.285
		c1.441,5.678,2.771,11.562,3.956,17.644c3.27,16.779,5.444,35.062,5.847,54.681c0.029,1.411,0.05,2.827,0.061,4.251
		c0.005,0.693,0.008,1.384,0.009,2.074c0,0.1-0.001,0.199-0.001,0.299c0,1.995-0.019,3.976-0.055,5.945
		c-0.015,0.789-0.032,1.575-0.052,2.359c-0.437,16.851-2.179,32.709-4.788,47.459c-0.796,4.497-1.671,8.891-2.617,13.18
		c-3.426,15.545-7.749,29.696-12.383,42.299c-1.51,4.108-3.053,8.052-4.608,11.826c-8.313,20.163-16.98,35.485-22.893,45.158
		l-87.305-60.79l-343.48-239.165l-121.524-84.617v-59.086l-68.828,19.784c-7.746,1.378-14.423,6.845-17.394,15.866
		c-3.31,10.046,0.354,20.568,8.396,26.455l591.19,432.681c32.792,24,76.047,28.249,112.882,11.089l1120.26-521.889
		c16.739-34.85,44.138-103.796,42.65-194.293c-0.071-4.285-0.207-8.515-0.4-12.693c-0.001-0.013-0.001-0.027-0.002-0.04
		c-0.715-15.518-2.238-30.294-4.344-44.263c-0.002-0.009-0.003-0.018-0.004-0.026c-0.323-2.14-0.66-4.26-1.009-6.362
		c-0.003-0.017-0.005-0.032-0.008-0.049c-0.171-1.029-0.345-2.054-0.522-3.073c-0.007-0.041-0.014-0.08-0.021-0.12
		c-0.178-1.026-0.36-2.048-0.544-3.064c0,0,0,0,0,0c-0.188-1.036-0.378-2.067-0.572-3.093c0-0.003-0.002-0.006-0.002-0.009
		c-0.362-1.917-0.733-3.818-1.115-5.701l97.166-71.111C2125.182,942.765,2128.848,932.223,2125.539,922.19z"/>
	<path style="fill:#0D759C;" d="M2028.512,1098.226c-0.071-4.285-0.207-8.515-0.4-12.693c-0.001-0.013-0.001-0.027-0.002-0.04
		c-0.715-15.518-2.238-30.294-4.344-44.263c-0.002-0.009-0.003-0.018-0.004-0.026c-0.323-2.14-0.66-4.26-1.009-6.362
		c-0.003-0.017-0.005-0.032-0.008-0.049c-0.171-1.029-0.345-2.054-0.522-3.073c-0.007-0.041-0.014-0.08-0.021-0.12
		c-0.178-1.026-0.36-2.048-0.544-3.064c0,0,0,0,0,0c-0.188-1.036-0.378-2.067-0.572-3.093c0-0.003-0.002-0.006-0.002-0.009
		c-0.362-1.917-0.733-3.818-1.115-5.701l-0.003,0.002l-225.138,164.767l-137.104,100.339l-131.792,96.452
		c-32.797,24.036-76.034,28.263-112.904,11.101l-3.904-1.819l-47.682-22.214l-72.305-33.685c0,0.001,0,0.003,0.001,0.004
		l-35.386-16.485c0-0.002,0-0.003,0-0.005l-51.272-23.886l0.002,0.006l-35.457-16.519c-0.001-0.002-0.001-0.004-0.001-0.006
		l-20.906-9.74l-95.031-44.273L532.063,981.966l0.003,0.019l-35.048-16.328l-0.003-0.019l-10.573-4.926l-41.078-19.137
		c0.001,0.006,0.002,0.013,0.003,0.02l-35.556-16.565c-0.001-0.007-0.002-0.013-0.003-0.02l-36.011-16.776l-176.206,56.799
		c-18.592,5.993-22.161,30.746-6.019,41.746l47.783,32.563l552.31,376.389c9.864,16.133,26.795,47.004,37.525,89.285
		c1.441,5.678,2.771,11.562,3.956,17.644c3.27,16.779,5.444,35.062,5.847,54.681c0.029,1.411,0.05,2.827,0.061,4.251
		c0.005,0.693,0.008,1.384,0.009,2.074c0,0.1-0.001,0.199-0.001,0.299c0,1.995-0.019,3.976-0.055,5.945
		c-0.015,0.789-0.032,1.575-0.052,2.359c-0.437,16.851-2.179,32.709-4.788,47.459c-0.796,4.497-1.671,8.891-2.617,13.18
		c-3.426,15.545-7.749,29.696-12.383,42.299c-1.51,4.108-3.053,8.052-4.608,11.826c-8.313,20.163-16.98,35.485-22.893,45.158
		l-87.305-60.79l-343.48-239.165l-121.524-84.617v-59.086l-68.828,19.784c-7.746,1.378-14.423,6.845-17.394,15.866
		c-3.31,10.046,0.354,20.568,8.396,26.455l591.19,432.681c32.792,24,76.047,28.249,112.882,11.089l1120.26-521.889
		C2002.6,1257.668,2030,1188.723,2028.512,1098.226z"/>
	<path style="fill:#D0C9AD;" d="M838.995,1577.34c-0.404-19.619-2.577-37.902-5.847-54.681c-1.185-6.082-2.515-11.966-3.956-17.644
		c-10.73-42.281-27.661-73.152-37.525-89.285l-552.31-376.389v102.346c17.239,2.588,34.483,6.936,51.548,12.72l206.869,140.49
		c6.571,6.987,12.807,13.959,18.671,20.858c23.669,27.842,47.035,57.785,68.869,89.303l-165.205-112.195l-37.54-25.495
		l-143.212-97.259v14.957l127.738,86.75l63.676,43.244l172.855,117.39c17.188,26.679,33.095,54.327,47.036,82.653l-183.743-124.785
		l-152.287-103.423l-75.275-51.122v14.957l59.801,40.613l178.423,121.172l183.435,124.576c10.102,22.47,18.886,45.31,26.02,68.379
		l-252.484-171.468l-187.857-127.579l-7.338-4.984v14.957l179.054,121.601l274.002,186.082c1.766,6.577,3.392,13.168,4.87,19.772
		c5.78,25.911,9.135,35.8,7.078,47.549l87.305,60.79c5.913-9.673,14.581-24.995,22.893-45.158c1.555-3.774,3.098-7.718,4.608-11.826
		c4.634-12.603,8.957-26.754,12.383-42.299c0.945-4.288,1.82-8.682,2.617-13.18c2.609-14.75,4.351-30.607,4.788-47.459
		c0.02-0.785,0.038-1.57,0.052-2.359c0.036-1.969,0.055-3.951,0.055-5.945c0-0.1,0.001-0.199,0.001-0.299
		c-0.001-0.69-0.003-1.381-0.009-2.074C839.044,1580.167,839.024,1578.751,838.995,1577.34z"/>
	<path style="fill:#D0C9AD;" d="M1788.457,788.277l-73.494,50.087l-227.988,155.378h6.315c-6.222,16.994-12.99,38.247-18.649,63.172
		c-0.782,3.445-1.543,6.961-2.278,10.545c-1.139,5.552-2.218,11.267-3.219,17.143c-2.722,15.992-4.869,33.164-6.114,51.396
		c-0.082,1.205-0.161,2.413-0.235,3.627c-0.31,5.066-0.548,10.214-0.711,15.438c-0.087,2.792-0.154,5.603-0.196,8.439
		c-0.213,14.467,0.19,28.377,1.072,41.676c0.319,4.809,0.703,9.536,1.139,14.182c1.555,16.517,3.815,31.99,6.485,46.305
		c0.84,4.505,1.721,8.896,2.633,13.168c2.987,13.983,6.308,26.7,9.641,38.019c1.378,4.677,2.757,9.118,4.116,13.31
		c18.463-12.85,36.924-25.703,55.387-38.554c10.643-7.408,21.285-14.816,31.927-22.224c-2.052-11.743,1.303-21.635,7.08-47.536
		c1.479-6.603,3.104-13.195,4.87-19.771l274.003-186.083l130.054-88.323v0l49.001-33.277v-14.957l-7.338,4.983l-47.909,32.536
		l-7.427,5.044l-132.522,89.999l-252.483,171.469c7.133-23.07,15.917-45.91,26.02-68.38l165.779-112.585l17.655-11.99
		l145.051-98.508l33.374-22.665l59.801-40.613v-14.957l-75.275,51.122l-29.086,19.753l-123.202,83.67l-85.303,57.932l-98.438,66.852
		c5.475-11.124,11.252-22.144,17.293-33.042c9.34-16.851,19.305-33.409,29.742-49.61l113.871-77.333l30.204-20.513l28.78-19.545
		l49.127-33.364l14.55-9.88l127.738-86.75v-14.957l-143.212,97.259l-10.262,6.969l-27.279,18.526l-50.187,34.083l-71.905,48.833
		l-43.114,29.28c3.974-5.736,7.998-11.42,12.066-17.049c18.283-25.298,37.44-49.479,56.803-72.254
		c3.76-4.423,7.675-8.877,11.73-13.346c2.27-2.5,4.583-5.005,6.941-7.512l67.016-45.512l139.853-94.978
		c17.065-5.784,34.309-10.132,51.548-12.72V617.327L1788.457,788.277z"/>
	<path style="fill:#AEA992;" d="M497.774,1294.897l335.373,227.762c-1.185-6.082-2.515-11.966-3.956-17.644l-390.674-265.317
		l-84.022-57.062l-115.139-78.194v14.957l51.548,35.008L497.774,1294.897z"/>
	<path style="fill:#AEA992;" d="M430.77,1315.06l172.855,117.39l235.329,159.818c0.02-0.785,0.038-1.57,0.052-2.359
		c0.036-1.969,0.055-3.951,0.055-5.945c0-0.1,0.001-0.199,0.001-0.299c-0.001-0.69-0.003-1.381-0.009-2.074
		c-0.011-1.424-0.031-2.84-0.061-4.251l-253.68-172.282l-165.205-112.195l-37.54-25.495l-143.212-97.259v14.957l127.738,86.75
		L430.77,1315.06z"/>
	<path style="fill:#AEA992;" d="M477.581,1412.516l183.435,124.576l170.534,115.815c0.945-4.288,1.82-8.682,2.617-13.18
		l-183.505-124.624l-183.743-124.785l-152.287-103.423l-75.275-51.122v14.957l59.801,40.613L477.581,1412.516z"/>
	<path style="fill:#AEA992;" d="M418.411,1437.998l274.002,186.082l122.146,82.952c1.555-3.774,3.098-7.718,4.608-11.826
		l-132.132-89.735l-252.484-171.468l-187.857-127.579l-7.338-4.984v14.957L418.411,1437.998z"/>
	<path style="fill:#AEA992;" d="M1840.136,817.692l-3.429,2.329l-75.525,51.292l-254.994,173.173l-33.826,22.973
		c-1.139,5.552-2.218,11.267-3.219,17.143l89.491-60.777l213.292-144.852l8.952-6.079l67.016-45.512l139.853-94.978l51.548-35.008
		v-14.957l-115.139,78.194L1840.136,817.692z"/>
	<path style="fill:#AEA992;" d="M1885.821,852.332l-27.279,18.526l-50.187,34.083l-71.905,48.833l-43.114,29.28l-217.099,147.438
		l-13.445,9.131c-0.31,5.066-0.548,10.214-0.711,15.438l71.14-48.313l141.803-96.302l113.871-77.333l30.204-20.513l28.78-19.545
		l49.127-33.364l14.55-9.88l127.738-86.75v-14.957l-143.212,97.259L1885.821,852.332z"/>
	<path style="fill:#AEA992;" d="M1934.933,884.644l-123.202,83.67l-85.303,57.932l-98.438,66.852l-165.032,112.078
		c0.319,4.809,0.703,9.536,1.139,14.182l153.538-104.271l165.779-112.585l17.655-11.99l145.051-98.508l33.374-22.665l59.801-40.613
		v-14.957l-75.275,51.122L1934.933,884.644z"/>
	<path style="fill:#AEA992;" d="M1984.048,916.955l-7.427,5.044l-132.522,89.999l-252.483,171.469l-121.033,82.196
		c0.84,4.505,1.721,8.896,2.633,13.168l113.021-76.756l274.003-186.083l130.054-88.323v0l49.001-33.277v-14.957l-7.338,4.983
		L1984.048,916.955z"/>
	<path style="fill:#F3A318;" d="M998.271,790.103l211.35,88.068c0.002-0.004,0.004-0.008,0.006-0.011l31.185,12.994
		c-0.002,0.004-0.004,0.008-0.005,0.012l39.77,16.572l0.006-0.014l32.039,13.351c-0.002,0.004-0.004,0.01-0.006,0.014l84.604,35.253
		l89.756,37.4l227.988-155.378l73.494-50.087l250.838-170.95l47.794-32.573c16.144-11,12.579-35.75-6.009-41.709L875.759,154.529
		c-26.992-8.709-56.528-4.736-80.26,10.899C627.951,275.682,460.353,385.887,292.806,496.142l592.932,247.069L998.271,790.103z
		 M451.768,496.144l375.445-267.643c6.881-4.906,15.693-6.227,23.711-3.554l1025.387,341.796
		c20.784,6.928,24.61,34.677,6.476,46.972l-77.594,52.606l-99.538,67.483l-70.408,47.735l-168.701,114.374l-42.562-16.767
		l-317.548-125.096L991.99,708.962L451.768,496.144z"/>
	<path style="fill:#F3A318;" d="M2006.298,968.59l-0.003,0.002l-88.525,61.64l-282.181,196.482l-61.299,42.682l-31.854,22.18
		l-55.451,38.61l65.053-42.684l22.904-15.028l361.972-237.504l74.764-49.056l0.001-0.001l9.53-6.253l18.085-11.867l31.199-20.471
		c3.849-2.526,4.266-7.505,1.841-10.711c-0.87-1.15-2.101-2.073-3.675-2.571l-8.76-2.772l-20.606-6.519v20.866L2006.298,968.59z"/>
	<path style="fill:#FFD86D;" d="M437.86,884.858c-6.284-54.961-9.5-110.471-5.975-165.747c3.003-47.091,11.32-93.891,26.14-138.739
		c1.488-4.505,3.057-8.978,4.695-13.424l-32.236-13.432c-17.875,48.154-26.671,100.743-30.868,148.963
		c-5,57.434-2.25,115.296,4.022,172.516c0.831,7.589,1.705,15.182,2.627,22.772c1.103,9.088,2.276,18.174,3.544,27.242
		c0.001,0.007,0.002,0.013,0.003,0.02l35.556,16.565c0-0.007-0.002-0.013-0.003-0.02c-2.517-18.015-5.086-36.02-7.199-54.091
		C438.063,886.609,437.96,885.734,437.86,884.858z"/>
	<path style="fill:#FFD86D;" d="M532.066,981.985l-0.003-0.019c-0.588-3.803-1.156-7.597-1.657-11.377
		c-1.035-7.825-2.121-15.644-3.214-23.46c-2.575-18.407-5.19-36.808-7.302-55.279c-1.131-9.891-2.161-19.799-3.071-29.72
		c-4.151-45.212-5.795-90.697-2.905-136.027c2.771-43.454,10.072-86.659,22.828-128.313l-32.259-13.441
		c-12.588,41.325-19.324,84.756-22.838,125.123c-4.723,54.26-2.529,108.902,3.017,163.025c0.325,3.166,0.66,6.329,1.006,9.491
		c2.767,25.252,5.965,50.548,10.025,75.641c0.404,2.498,0.814,4.996,1.236,7.49l0.087,0.519l0.003,0.019L532.066,981.985z"/>
	<path style="fill:#FFD86D;" d="M1202.481,1294.307l-0.002-0.006c-1.885-13.573-3.718-27.153-5.274-40.771
		c-0.247-2.157-0.487-4.315-0.723-6.473c-2.852-25.977-4.986-52.069-6.017-78.194c-1.068-27.021-0.958-54.078,0.764-81.079
		c3.003-47.092,11.32-93.891,26.14-138.74c6.546-19.808,14.617-39.009,23.437-57.878c0.001-0.004,0.003-0.008,0.005-0.012
		l-31.185-12.994c-0.002,0.004-0.004,0.008-0.006,0.011c-31.652,58.517-45.136,129.531-50.66,192.98
		c-3.202,36.781-3.226,73.737-1.181,110.588c1.148,20.692,2.948,41.352,5.203,61.929c0.605,5.519,1.23,11.041,1.882,16.563
		c0.69,5.853,1.408,11.704,2.159,17.552c0,0.002,0,0.004,0.001,0.006L1202.481,1294.307z"/>
	<path style="fill:#FFD86D;" d="M1280.582,907.723l-0.006,0.014c-23.837,53.642-34.755,114.917-39.586,170.406
		c-2.08,23.887-2.818,47.849-2.52,71.807c0.323,25.985,1.864,51.966,4.237,77.846c0.7,7.631,1.47,15.253,2.305,22.863
		c2.47,22.533,5.279,45.101,8.74,67.528c0,0.002,0,0.003,0,0.005l35.386,16.485c-0.001-0.001-0.001-0.003-0.001-0.004
		c-3.327-24.716-7.07-49.371-9.903-74.151c-1.752-15.325-3.265-30.693-4.461-46.087c-2.005-25.829-3.115-51.729-2.953-77.622
		c0.087-14.019,0.546-28.036,1.438-42.037c3.002-47.091,11.321-93.891,26.14-138.739c3.915-11.847,8.376-23.477,13.215-34.949
		c0.002-0.004,0.004-0.01,0.006-0.014L1280.582,907.723z"/>
	<path style="fill:#F3A318;" d="M1134.602,1247.624c0.694,2.078,3.594,1.65,3.751-0.507c1.368-18.785-0.612-37.867-2.21-56.854
		c-0.671-7.969-1.274-15.922-1.533-23.828c-0.83-25.298-0.848-50.631,0.214-75.921c2.211-52.661,13.018-103.401,19.02-155.476
		c0.574-4.98-7.056-5.57-8.44-1.143c-15.379,49.193-18.933,105.397-21.084,156.619c-1.371,32.648-3.393,69.475-0.115,104.451
		C1125.926,1213.318,1129.104,1231.161,1134.602,1247.624z"/>
	<path style="fill:#F3A318;" d="M551.859,850.836c1.305,28.104,3.697,57.594,9.942,84.757c2.773,12.061,6.305,23.662,10.838,34.479
		c0.776,1.853,3.758,1.828,3.751-0.508c-0.034-12.557-1.573-25.123-3.495-37.67c-2.164-14.124-4.813-28.223-6.348-42.255
		c-1.539-14.077-2.822-28.184-3.804-42.312c-0.773-11.121-1.361-22.253-1.74-33.393c-1.792-52.762,5.162-104.093,7.172-156.543
		c0.184-4.809-7.345-5.883-8.44-1.143c-11.643,50.392-10.982,106.254-9.235,157.686
		C550.901,825.723,551.269,838.138,551.859,850.836z"/>
	<path style="fill:#F3A318;" d="M378.363,893.724c1.394-26.678-3.983-53.826-5.413-80.522c-1.354-25.273-1.896-50.6-1.357-75.905
		c1.121-52.734,10.879-103.619,15.796-155.856c0.465-4.939-7.13-5.659-8.44-1.142c-14.387,49.599-16.769,105.675-17.86,156.998
		c-1.06,49.83-3.431,109.423,13.522,156.935C375.332,896.25,378.248,895.932,378.363,893.724z"/>
	<path style="fill:#EC7B1E;" d="M1473.216,1278.831c-0.912-4.272-1.793-8.663-2.633-13.168c-2.67-14.315-4.93-29.788-6.485-46.305
		c-0.437-4.646-0.82-9.374-1.139-14.182c-0.882-13.299-1.286-27.208-1.072-41.676c0.042-2.835,0.109-5.647,0.196-8.439
		c0.163-5.224,0.401-10.372,0.711-15.438c0.074-1.214,0.153-2.422,0.235-3.627c1.245-18.232,3.392-35.403,6.114-51.396
		c1.001-5.876,2.079-11.591,3.219-17.143c0.735-3.584,1.496-7.1,2.278-10.545c5.659-24.924,12.427-46.178,18.649-63.172h-6.315
		c-8.367,13.71-21.865,38.073-32.315,71.042c-1.842,5.811-3.589,11.89-5.197,18.224c-1.442,5.678-2.77,11.562-3.955,17.643
		c-2.721,13.967-4.681,28.977-5.49,44.932c-0.163,3.209-0.279,6.457-0.346,9.741c-0.028,1.421-0.049,2.849-0.058,4.284
		c-0.025,3.59,0.012,7.136,0.104,10.641c0.442,16.849,2.185,32.705,4.794,47.453c0.796,4.497,1.672,8.892,2.616,13.18
		c3.424,15.547,7.745,29.699,12.375,42.305c1.51,4.109,3.052,8.054,4.606,11.829c5.419,13.159,10.988,24.255,15.847,33.064
		c2.583,4.683,4.966,8.722,7.018,12.08c-1.359-4.192-2.739-8.633-4.116-13.31
		C1479.524,1305.531,1476.203,1292.815,1473.216,1278.831z"/>
	<path style="fill:#004972;" d="M1794.829,1184.501l233.283-98.968c-0.001-0.013-0.001-0.027-0.002-0.04
		c-0.715-15.518-2.238-30.294-4.344-44.263c-0.002-0.009-0.003-0.018-0.004-0.026c-0.323-2.14-0.66-4.26-1.009-6.362
		c-0.003-0.017-0.005-0.032-0.008-0.049c-0.171-1.029-0.345-2.054-0.522-3.073c-0.007-0.041-0.014-0.08-0.021-0.12
		c-0.178-1.026-0.36-2.048-0.544-3.064c0,0,0,0,0,0c-0.188-1.036-0.378-2.067-0.572-3.093c0-0.003-0.002-0.006-0.002-0.009
		c-0.362-1.917-0.736-3.816-1.118-5.699L1794.829,1184.501z"/>
	<path style="fill:#004972;" d="M1253.752,1318.193c0-0.002,0-0.003,0-0.005l-51.272-23.886l0.002,0.006l-35.457-16.519
		c-0.001-0.002-0.001-0.004-0.001-0.006l-20.906-9.74l-264.689,110.287l-89.762,37.401c9.864,16.133,26.795,47.004,37.525,89.285
		c1.441,5.678,2.771,11.562,3.956,17.644c3.27,16.779,5.444,35.062,5.847,54.681c0.029,1.411,0.05,2.827,0.061,4.251
		c0.005,0.693,0.008,1.384,0.009,2.074c0,0.1-0.001,0.199-0.001,0.299c0,1.995-0.019,3.976-0.055,5.945
		c-0.001,0.03-0.001,0.059-0.002,0.088l11.465-4.863l45.96-19.498l13.556-5.751l0.008-0.003l451.449-191.523l-72.305-33.685
		c0,0.001,0,0.003,0.001,0.004L1253.752,1318.193z"/>
	<path style="fill:#004972;" d="M532.066,981.985l-35.048-16.328l-0.003-0.019l-10.573-4.926l-84.102,28.034
		c-20.784,6.928-24.61,34.677-6.476,46.972l77.593,52.606l338.648,229.592l42.561-16.767l196.421-77.379L532.063,981.966
		L532.066,981.985z"/>
	<path style="fill:#0A7BA5;" d="M1035.241,1576.43v37.652c0,29.338,30.175,48.979,57.001,37.104l744.535-329.584
		c14.683-6.5,24.152-21.046,24.152-37.104v-24.733c0-29.083-29.695-48.722-56.458-37.34l-146.746,62.414l-131.792,96.452
		c-32.797,24.036-76.034,28.263-112.904,11.101l-3.904-1.819l-349.189,148.517C1044.962,1545.46,1035.241,1560.158,1035.241,1576.43
		z"/>
	<path style="fill:#004972;" d="M360.881,1452.235l-121.524-84.617v-20.865l-20.605,6.519l-8.761,2.772
		c-1.574,0.498-2.805,1.422-3.674,2.571c-2.425,3.207-2.008,8.186,1.841,10.712l31.199,20.471l18.087,11.868l84.293,55.308
		l361.972,237.505l87.957,57.711l-87.305-60.79L360.881,1452.235z"/>
</g>
</svg>
